<svg width="28" height="28" viewBox="0 0 28 28" fill="none" xmlns="http://www.w3.org/2000/svg">
<path d="M5.9432 3.42774H21.9382C22.5442 3.42774 23.1254 3.66848 23.5539 4.097C23.9825 4.52552 24.2232 5.10672 24.2232 5.71274V21.7077C24.2232 22.3138 23.9825 22.895 23.5539 23.3235C23.1254 23.752 22.5442 23.9927 21.9382 23.9927H5.9432C5.33718 23.9927 4.75598 23.752 4.32746 23.3235C3.89894 22.895 3.6582 22.3138 3.6582 21.7077V5.71274C3.6582 5.10672 3.89894 4.52552 4.32746 4.097C4.75598 3.66848 5.33718 3.42774 5.9432 3.42774ZM20.7957 5.71274H17.9395C16.8789 5.71274 15.8618 6.13403 15.1119 6.88395C14.362 7.63386 13.9407 8.65095 13.9407 9.71149V12.5677H11.6557V15.9952H13.9407V23.9927H17.3682V15.9952H20.7957V12.5677H17.3682V10.2827C17.3682 9.97973 17.4886 9.68913 17.7028 9.47487C17.9171 9.26061 18.2077 9.14024 18.5107 9.14024H20.7957V5.71274Z" fill="#04243D"/>
</svg>
