<svg width="21" height="29" viewBox="0 0 21 29" fill="none" xmlns="http://www.w3.org/2000/svg">
<path d="M5.95612 13.6517C7.15612 16.0099 9.08945 17.9348 11.4478 19.143L13.2811 17.3098C13.5061 17.0848 13.8395 17.0098 14.1311 17.1098C15.0645 17.4181 16.0728 17.5848 17.1061 17.5848C17.5645 17.5848 17.9395 17.9598 17.9395 18.4181V21.3262C17.9395 21.7845 17.5645 22.1595 17.1061 22.1595C9.28112 22.1595 2.93945 15.8183 2.93945 7.9938C2.93945 7.53549 3.31445 7.16052 3.77279 7.16052H6.68945C7.14779 7.16052 7.52279 7.53549 7.52279 7.9938C7.52279 9.03539 7.68945 10.0353 7.99779 10.9686C8.08945 11.2602 8.02279 11.5852 7.78945 11.8185L5.95612 13.6517Z" fill="#04243D"/>
</svg>
