<svg width="28" height="28" viewBox="0 0 28 28" fill="none" xmlns="http://www.w3.org/2000/svg">
<path d="M11.5052 17.1375L17.4348 13.71L11.5052 10.2825V17.1375ZM24.7125 8.19172C24.8611 8.7287 24.9639 9.44847 25.0324 10.3625C25.1124 11.2765 25.1467 12.0648 25.1467 12.7503L25.2152 13.71C25.2152 16.2121 25.0324 18.0515 24.7125 19.2283C24.4269 20.2565 23.7643 20.9192 22.736 21.2048C22.199 21.3533 21.2165 21.4562 19.7084 21.5247C18.2231 21.6047 16.8636 21.639 15.6068 21.639L13.7902 21.7075C9.00316 21.7075 6.02123 21.5247 4.84446 21.2048C3.81621 20.9192 3.15356 20.2565 2.86793 19.2283C2.71941 18.6913 2.61658 17.9715 2.54803 17.0575C2.46806 16.1435 2.43378 15.3552 2.43378 14.6697L2.36523 13.71C2.36523 11.2079 2.54803 9.3685 2.86793 8.19172C3.15356 7.16347 3.81621 6.50082 4.84446 6.2152C5.38143 6.06667 6.36398 5.96385 7.87208 5.8953C9.35733 5.81532 10.7169 5.78105 11.9737 5.78105L13.7902 5.7125C18.5773 5.7125 21.5592 5.8953 22.736 6.2152C23.7643 6.50082 24.4269 7.16347 24.7125 8.19172Z" fill="#04243D"/>
</svg>
